<svg width="364" height="355" xmlns="http://www.w3.org/2000/svg">
 <!-- Created with Method Draw - http://github.com/duopixel/Method-Draw/ -->

 <g>
  <title>background</title>
  <rect x="-1" y="-1" width="366" height="357" id="canvas_background" fill="none"/>
 </g>
 <g>
  <title>Layer 1</title>
  <metadata>Created by Lukas Pessoa Dantas</metadata>
  <g id="svg_7" stroke="null">
   <g id="svg_6" stroke="null">
    <title>Layer 1</title>
    <path id="svg_4" d="m602.061758,3.40699c-20.986176,2.386878 -41.863779,10.362565 -58.836807,22.413517c-7.592003,5.414258 -13.557032,10.711957 -20.498138,18.221982c-4.663505,5.064867 -6.236192,6.462142 -6.615657,5.87992c-0.271162,-0.465952 -1.410098,-2.503439 -2.494477,-4.599206c-1.084649,-2.095767 -2.115012,-3.900713 -2.331887,-4.075264c-0.216876,-0.174551 -2.223314,-3.725873 -4.500915,-7.917407c-2.223314,-4.249815 -4.609218,-8.499629 -5.314132,-9.547513c-0.705184,-0.989893 -3.416482,-5.9382 -5.965137,-10.944787l-4.663586,-9.140131l-7.158035,-0.174841l-7.158035,-0.174551l1.247211,2.270318c0.704968,1.281004 3.416347,6.113041 6.1277,10.828517c2.711406,4.715476 6.72423,11.876111 8.947571,15.951375c2.223287,4.075264 5.205802,9.256402 6.561505,11.468729c1.355622,2.270608 3.416347,5.87992 4.555013,8.150528c1.193222,2.212038 2.44046,4.424365 2.765639,4.773756c0.379735,0.407381 2.331887,3.900423 4.284039,7.742856c2.006439,3.842143 3.850288,7.160634 4.12145,7.335185c0.270892,0.174841 1.843579,2.85283 3.524569,5.9382c1.735276,3.085371 4.338326,7.859127 5.911013,10.595396c1.572417,2.736269 4.12118,7.277195 5.693597,10.188015c1.572687,2.85254 3.036801,5.355978 3.253677,5.530529c0.271162,0.174841 2.169298,3.551322 4.338326,7.568306c2.169028,4.016984 6.181905,11.177618 8.947544,16.009655c2.819925,4.773756 6.832803,11.992671 8.947544,15.951375c2.169028,3.958704 4.663505,8.325078 5.531278,9.605793c0.867503,1.338995 2.982515,5.006587 4.663505,8.208518c1.68099,3.201931 3.19939,5.9382 3.416266,6.112751c0.216876,0.174551 2.277601,3.784153 4.555202,8.092248c2.277601,4.308095 4.500915,8.150238 4.88038,8.616189c0.434022,0.407381 2.169028,3.492752 3.850288,6.752934c1.735276,3.260211 3.633142,6.695002 4.284039,7.684605c0.650627,0.931613 2.982245,5.006877 5.151543,9.023861c2.169028,4.016984 4.175467,7.393465 4.338056,7.568016c0.216876,0.174841 2.169298,3.667593 4.392342,7.859417c2.169298,4.191505 4.12145,7.684576 4.284039,7.859098c0.216876,0.174841 0.813487,1.164444 1.355811,2.154047c1.247238,2.270608 2.006439,2.386878 3.145104,0.523913c0.488038,-0.756744 1.192952,-1.688096 1.572687,-2.154047c0.379465,-0.465662 2.548493,-4.191534 4.717791,-8.383069c2.223314,-4.191824 4.175467,-7.684605 4.392342,-7.859417c0.162589,-0.174551 2.169298,-3.551032 4.338326,-7.568306c2.169028,-4.016694 4.500915,-8.091958 5.151543,-9.023571c0.650627,-0.989603 2.548763,-4.424365 4.284039,-7.684605c1.68099,-3.260211 3.416266,-6.345582 3.850018,-6.752934c0.379735,-0.465981 2.60305,-4.308095 4.88065,-8.616189c2.277331,-4.308095 4.338056,-7.917697 4.554932,-8.092248c0.217173,-0.174551 1.735276,-2.91082 3.416536,-6.112751c1.681017,-3.201931 3.795731,-6.869524 4.663505,-8.208518c0.86753,-1.280714 3.36198,-5.647089 5.531008,-9.605793c2.115012,-3.958704 6.127889,-11.177618 8.947544,-15.951375c2.765639,-4.832037 6.778516,-11.992671 8.947544,-16.009655c2.169298,-4.016984 4.067164,-7.393465 4.338326,-7.568306c0.216876,-0.174551 1.68099,-2.677989 3.253677,-5.530529c1.572687,-2.91082 4.12118,-7.451745 5.693867,-10.188015c1.572687,-2.736269 4.175467,-7.510026 5.910743,-10.595396c1.68099,-3.085661 3.253677,-5.76336 3.524839,-5.9382c0.271162,-0.174551 2.115012,-3.493042 4.12118,-7.335185c1.952422,-3.842433 3.904574,-7.335475 4.284039,-7.743146c0.325476,-0.349101 1.572714,-2.561429 2.765639,-4.773756c1.138665,-2.270318 3.307963,-6.054471 4.772078,-8.441349c1.464114,-2.386878 4.392342,-7.510026 6.453067,-11.352169c4.555229,-8.441639 9.815047,-17.63976 13.448459,-23.636241c1.518401,-2.445158 2.711379,-4.598916 2.711379,-4.831747c0,-0.233121 -3.19939,-0.291111 -7.158008,-0.233121l-7.103938,0.174841l-4.663505,9.139841c-2.548763,5.006877 -5.260116,9.955184 -5.965029,10.944787c-0.704914,1.047884 -3.090818,5.297988 -5.260116,9.431242c-2.223314,4.133544 -4.338056,7.859417 -4.717791,8.325078c-0.542325,0.582222 -1.355541,0.05828 -4.446629,-2.85283c-19.250899,-18.279973 -40.453681,-29.28304 -65.344161,-33.881956c-8.730668,-1.630106 -25.324232,-2.328772 -33.404003,-1.397275l0,0l-0.000027,0.000058l0.000004,0.000003zm29.825147,12.516613c24.185296,4.424365 45.062899,15.485713 64.530674,34.173357l2.602807,2.503439l-2.657066,4.657196c-1.518401,2.561429 -3.904304,6.811243 -5.368418,9.431242c-6.615927,11.876111 -10.791393,19.269866 -12.147205,21.423913c-0.758957,1.280714 -2.223044,3.900423 -3.253434,5.82164c-2.223314,4.366085 -4.988953,9.198121 -5.476991,9.605793c-0.162859,0.174551 -2.331887,3.958704 -4.826337,8.441349c-9.272723,16.940978 -11.550324,21.016242 -13.231584,23.577671c-0.976076,1.455555 -3.416266,5.82193 -5.476991,9.722353c-2.060455,3.900713 -3.850018,6.986084 -3.958591,6.927804c-0.108303,-0.11627 0.488038,-1.862936 1.301525,-3.900423c4.284039,-11.003068 5.205829,-20.899971 2.60305,-29.34132c-0.813487,-2.561719 -2.169298,-5.76365 -2.982542,-7.102644c-2.223314,-3.434762 -7.212268,-8.033678 -10.465945,-9.547513l-2.765639,-1.338995l-0.054286,-11.64328c0,-11.235898 -0.054286,-11.992671 -1.735276,-18.687644c-2.223314,-8.9073 -8.24263,-22.180686 -13.502476,-29.690712c-5.260116,-7.510026 -13.665335,-16.358756 -19.305186,-20.317749c-2.657066,-1.862936 -4.717791,-3.434762 -4.609218,-3.551032c0.325449,-0.349391 10.194782,-2.095767 14.804001,-2.619709c6.453067,-0.757063 17.40705,-0.11656 25.975129,1.455265l-0.000001,-0.000001zm-40.453681,4.191534c2.819655,6.869813 4.934667,12.924284 5.476991,15.602273c1.843579,9.256402 2.385904,14.030158 2.385904,20.084919c0,5.76336 -0.162589,7.276905 -1.355811,10.595396c-2.169028,6.287302 -4.609218,10.071454 -11.116572,17.40693c-7.808609,8.84873 -10.08621,11.992671 -12.634973,17.40664c-4.12118,8.84902 -5.965029,17.698041 -5.910743,28.468277c0,6.811243 0.650627,11.177618 2.331617,16.067645c0.216876,0.640502 -0.813217,-1.105874 -2.277601,-3.900423c-1.464114,-2.736269 -3.307693,-5.87992 -4.066894,-6.986084c-1.301525,-1.862936 -3.19939,-5.239418 -12.851848,-22.879178c-2.494477,-4.482645 -4.663775,-8.266798 -4.826364,-8.441639c-0.488038,-0.407381 -3.253677,-5.239418 -5.476991,-9.605503c-1.030363,-1.921217 -2.494477,-4.540926 -3.253677,-5.82193c-0.813487,-1.280714 -3.253677,-5.472249 -5.422705,-9.314682c-2.115012,-3.842143 -5.097256,-9.081851 -6.56164,-11.64328c-1.464114,-2.561429 -2.657066,-5.006587 -2.657066,-5.472539c0,-0.989603 3.958591,-6.112751 8.188344,-10.595396c9.977907,-10.653676 25.81227,-21.540184 40.074216,-27.652935c5.260116,-2.212328 16.376688,-5.99648 17.949375,-6.054761c0.488038,0 1.301255,1.106454 2.006439,2.736269l0,0l-0.000001,0.000001zm20.443581,32.31042c4.229753,8.033967 6.615927,15.543993 7.863165,24.625844c0.704914,4.832037 0.867503,21.307353 0.271162,22.413517c-0.162859,0.291111 -0.976346,0.582222 -1.789563,0.582222c-2.548763,0 -8.188344,2.154047 -11.930059,4.540926c-4.175737,2.677989 -8.676382,7.451745 -10.411658,11.119338c-2.874212,6.054471 -2.494477,13.564496 0.976076,19.153306c3.904304,6.345582 9.435582,9.198411 16.919012,8.73246c5.639581,-0.349101 7.537446,-1.629816 9.815047,-6.636693c1.626703,-3.551032 1.735276,-3.958704 1.409828,-8.67418c-0.379465,-5.355978 -1.138665,-7.917697 -1.735276,-5.82164c-0.162589,0.640212 -1.084379,2.79426 -2.006169,4.832037c-2.115012,4.657196 -4.446899,6.520132 -8.188614,6.520132c-4.663505,0 -7.700306,-2.561429 -9.055847,-7.568306c-1.138935,-4.249815 3.307963,-11.061058 9.272993,-14.204709c3.633142,-1.862936 9.543885,-2.91082 12.255237,-2.154047c5.097526,1.513545 9.544155,6.171031 11.387734,11.876111c3.470553,10.711957 -2.277331,28.235157 -11.333448,34.755579c-7.212268,5.181399 -15.997223,6.287302 -25.64968,3.201931c-9.218706,-2.91082 -15.183736,-7.917407 -18.925181,-16.067935c-4.338326,-9.372962 -4.229753,-20.55058 0.216876,-33.067193c2.765369,-7.742856 5.368418,-11.70156 13.827924,-21.016242c2.711352,-3.02738 5.693867,-6.578413 6.615657,-7.859417c2.548763,-3.609312 5.531278,-10.362565 6.453067,-14.72865c0.92206,-4.191824 1.301525,-15.136612 0.596611,-17.756321c-0.7592,-3.02709 0.650627,-1.571825 3.145104,3.201931l0,0l0.000002,-0.000001zm28.198444,104.499567c-0.813487,1.571535 -1.789563,3.201641 -2.169298,3.667593c-0.325179,0.465662 -1.409828,2.328569 -2.385904,4.074974c-2.223314,4.075264 -9.272993,16.650157 -12.851848,22.879468c-3.741715,6.461852 -6.941105,12.283782 -10.574518,18.978465c-1.68099,3.085661 -3.36198,5.589099 -3.741445,5.589099c-0.379735,0 -2.060725,-2.503439 -3.741985,-5.589099c-3.633142,-6.694683 -6.832533,-12.516323 -10.574248,-18.978465c-3.578856,-6.229311 -10.628534,-18.804204 -12.851848,-22.879468c-0.976076,-1.746376 -2.006439,-3.609312 -2.386174,-4.074974c-0.325179,-0.465691 -1.192952,-1.921246 -1.897866,-3.20196l-1.247238,-2.328888l3.19939,3.260211c5.965029,6.112751 11.062556,9.023571 19.738938,11.352459c6.236192,1.688096 15.292039,1.920927 20.931889,0.465662c7.646019,-1.862907 14.858287,-6.636664 19.304916,-12.749444c1.301255,-1.746666 2.385904,-3.201931 2.494477,-3.201931c0.108303,0 -0.434022,1.222434 -1.247238,2.736269l0,0l0,0.000029z" fill="black" stroke="null"/>
   </g>
  </g>
  <metadata>Created by Lukas Pessoa Dantas</metadata>
  <g id="svg_14" stroke="null">
   <g id="svg_13" stroke="null">
    <title>Layer 1</title>
    <path id="svg_11" d="m173.556497,41.027171c-28.291747,3.074387 -56.437125,13.347368 -79.318693,28.869439c-10.234882,6.973765 -18.276418,13.797397 -27.633816,23.470588c-6.286933,6.523737 -8.407094,8.323478 -8.918656,7.573555c-0.365557,-0.600163 -1.900972,-3.224522 -3.362838,-5.923947c-1.46223,-2.699426 -2.851276,-5.024263 -3.143649,-5.249091c-0.292373,-0.224828 -2.99728,-4.799062 -6.067745,-10.197913c-2.99728,-5.473918 -6.213749,-10.947837 -7.164053,-12.29755c-0.950668,-1.275019 -4.605806,-7.648622 -8.041682,-14.097291l-6.287043,-11.772827l-9.649844,-0.225201l-9.649844,-0.224828l1.681382,2.924253c0.950377,1.649981 4.605624,7.873823 8.260835,13.947531c3.655284,6.073708 9.065025,15.29687 12.062341,20.545961c2.997244,5.249091 7.018012,11.922588 8.845654,14.772148c1.827533,2.924627 4.605624,7.573555 6.140674,10.498182c1.608599,2.849186 3.290017,5.698746 3.728395,6.148775c0.511926,0.524722 3.143649,5.02389 5.775371,9.973086c2.704907,4.948823 5.190625,9.223162 5.556183,9.44799c0.365193,0.225201 2.485354,3.67455 4.751519,7.648622c2.339349,3.974072 5.848556,10.122846 7.968716,13.647263c2.119797,3.524416 5.555818,9.373296 7.675615,13.12254c2.120161,3.674177 4.093953,6.898698 4.386326,7.123526c0.365557,0.225201 2.92446,4.574234 5.848556,9.748258c2.924096,5.174024 8.33391,14.397186 12.062305,20.621028c3.801579,6.148775 9.211393,15.447004 12.062305,20.545961c2.924096,5.098957 6.286933,10.723009 7.45679,12.372617c1.169493,1.724675 4.020768,6.44867 6.286933,10.572875c2.266165,4.124206 4.313141,7.648622 4.605515,7.873449c0.292373,0.224828 3.070464,4.874129 6.140929,10.423115c3.070464,5.548985 6.067745,10.497808 6.579307,11.097971c0.58511,0.524722 2.924096,4.498794 5.190625,8.698029c2.339349,4.199273 4.897888,8.62341 5.775371,9.898056c0.87712,1.199952 4.020404,6.449043 6.944864,11.623067c2.924096,5.174024 5.629003,9.523057 5.848192,9.747885c0.292373,0.225201 2.92446,4.723995 5.921376,10.12322c2.92446,5.398814 5.556183,9.898019 5.775371,10.122809c0.292373,0.225201 1.096672,1.499847 1.827787,2.774493c1.681419,2.924627 2.704907,3.074387 4.239957,0.674819c0.657931,-0.974714 1.608234,-2.17433 2.120161,-2.774493c0.511562,-0.599789 3.435658,-5.398851 6.360118,-10.797703c2.99728,-5.399225 5.629003,-9.898056 5.921376,-10.12322c0.219189,-0.224828 2.92446,-4.573861 5.848556,-9.748258c2.924096,-5.17365 6.067745,-10.422741 6.944864,-11.622693c0.87712,-1.274646 3.436022,-5.698746 5.775371,-9.898056c2.266165,-4.199273 4.605515,-8.173344 5.190261,-8.698029c0.511926,-0.6002 3.509206,-5.548985 6.579671,-11.097971c3.0701,-5.548985 5.848192,-10.198287 6.140565,-10.423115c0.292774,-0.224828 2.339349,-3.749244 4.605879,-7.873449c2.266202,-4.124206 5.117077,-8.848201 6.286933,-10.572875c1.169529,-1.649608 4.53233,-7.27366 7.456426,-12.372617c2.851276,-5.098957 8.26109,-14.397186 12.062305,-20.545961c3.728395,-6.223842 9.138209,-15.447004 12.062305,-20.621028c2.92446,-5.174024 5.482998,-9.523057 5.848556,-9.748258c0.292373,-0.224828 2.266165,-3.449349 4.386326,-7.123526c2.120161,-3.749244 5.555818,-9.598124 7.675979,-13.12254c2.120161,-3.524416 5.629003,-9.673191 7.968352,-13.647263c2.266165,-3.974445 4.386326,-7.423421 4.751883,-7.648622c0.365557,-0.224828 2.851276,-4.499167 5.555818,-9.44799c2.632087,-4.949196 5.263809,-9.448363 5.775371,-9.973459c0.438778,-0.449655 2.120197,-3.299215 3.728395,-6.148775c1.53505,-2.924253 4.45951,-7.798382 6.433302,-10.87277c1.973792,-3.074387 5.921376,-9.673191 8.699467,-14.622014c6.140965,-10.873143 13.231798,-22.720664 18.130049,-30.444353c2.046976,-3.149454 3.655247,-5.923574 3.655247,-6.223468c0,-0.300268 -4.313141,-0.374962 -9.649808,-0.300268l-9.576914,0.225201l-6.286933,11.772454c-3.436022,6.449043 -7.091233,12.822646 -8.041537,14.097291c-0.950304,1.349713 -4.166773,6.824005 -7.091233,12.147789c-2.99728,5.324158 -5.848192,10.12322 -6.360118,10.723009c-0.731115,0.749923 -1.827423,0.075067 -5.99456,-3.67455c-25.952397,-23.545281 -54.536153,-37.71764 -88.091345,-43.641213c-11.769932,-2.099636 -34.139938,-2.999544 -45.032386,-1.799742l0,0l-0.000036,0.000075l0.000003,-0.000003zm40.207683,16.121861c32.604524,5.698746 60.749902,19.946172 86.994673,44.016549l3.508879,3.224522l-3.582026,5.998641c-2.046976,3.299215 -5.263445,8.773134 -7.237237,12.147789c-8.91902,15.29687 -14.548023,24.820301 -16.37581,27.594793c-1.02316,1.649608 -2.996916,5.02389 -4.385998,7.498488c-2.99728,5.623679 -6.725675,11.847521 -7.383606,12.372617c-0.219553,0.224828 -3.143649,5.098957 -6.50645,10.87277c-12.500683,21.820607 -15.571147,27.069698 -17.837676,30.368913c-1.315861,1.874809 -4.605515,7.498861 -7.383606,12.522751c-2.777727,5.024263 -5.190261,8.998335 -5.33663,8.923268c-0.146005,-0.149761 0.657931,-2.399531 1.754603,-5.02389c5.775371,-14.172358 7.018048,-26.919937 3.509206,-37.792707c-1.096672,-3.299589 -2.92446,-7.423794 -4.020805,-9.148469c-2.99728,-4.4241 -9.722955,-10.347674 -14.109281,-12.29755l-3.728395,-1.724675l-0.073184,-14.996975c0,-14.472253 -0.073184,-15.447004 -2.339349,-24.070377c-2.99728,-11.472933 -11.112001,-28.569544 -18.20287,-38.242736c-7.091233,-9.673191 -18.422423,-21.070683 -26.025582,-26.170013c-3.582026,-2.399531 -6.360118,-4.4241 -6.213749,-4.573861c0.438742,-0.450029 13.743724,-2.699426 19.957473,-3.374282c8.699467,-0.975125 23.466679,-0.150134 35.017422,1.874435l-0.000002,-0.000001zm-54.536153,5.398851c3.801215,8.848574 6.652491,16.646956 7.383606,20.096306c2.485354,11.922588 3.216469,18.071363 3.216469,25.870119c0,7.423421 -0.219189,9.372923 -1.827787,13.647263c-2.924096,8.098277 -6.213749,12.972406 -14.986401,22.42077c-10.526891,11.397492 -13.597355,15.447004 -17.033377,22.420396c-5.555818,11.397866 -8.041537,22.795731 -7.968352,36.668195c0,8.773134 0.87712,14.397186 3.143285,20.695722c0.292373,0.824991 -1.096308,-1.424406 -3.070464,-5.02389c-1.973792,-3.524416 -4.459146,-7.573555 -5.482634,-8.998335c-1.754603,-2.399531 -4.313141,-6.748564 -17.32575,-29.469229c-3.362838,-5.773813 -6.287298,-10.647942 -6.506486,-10.873143c-0.657931,-0.524722 -4.386326,-6.748564 -7.383606,-12.372243c-1.389046,-2.474598 -3.362838,-5.84888 -4.386326,-7.498861c-1.096672,-1.649608 -4.386326,-7.048459 -7.310422,-11.997655c-2.851276,-4.948823 -6.87168,-11.69776 -8.845836,-14.996975c-1.973792,-3.299215 -3.582026,-6.44867 -3.582026,-7.048832c0,-1.274646 5.33663,-7.873449 11.038817,-13.647263c13.451351,-13.72233 34.797869,-27.744554 54.024591,-35.618003c7.091233,-2.84956 22.077633,-7.723689 24.197794,-7.798756c0.657931,0 1.754239,1.425153 2.704907,3.524416l0,0l-0.000002,-0.000002zm27.560268,41.617018c5.702187,10.348047 8.91902,20.021239 10.600439,31.718999c0.950304,6.223842 1.169493,27.444659 0.365557,28.869439c-0.219553,0.374962 -1.316225,0.749923 -2.412534,0.749923c-3.436022,0 -11.038817,2.774493 -16.083073,5.84888c-5.629367,3.449349 -11.696747,9.598124 -14.036097,14.322119c-3.874764,7.798382 -3.362838,17.471573 1.315861,24.670167c5.263445,8.173344 12.720236,11.847894 22.808748,11.247732c7.602795,-0.449655 10.161333,-2.099263 13.231798,-8.548306c2.192981,-4.573861 2.339349,-5.098957 1.900608,-11.172665c-0.511562,-6.898698 -1.53505,-10.198287 -2.339349,-7.498488c-0.219189,0.824617 -1.461866,3.59911 -2.704543,6.223842c-2.851276,5.998641 -5.994924,8.398172 -11.039181,8.398172c-6.286933,0 -10.380886,-3.299215 -12.208309,-9.748258c-1.535414,-5.473918 4.45951,-14.247052 12.501047,-18.296191c4.897888,-2.399531 12.86624,-3.749244 16.521451,-2.774493c6.872044,1.949502 12.866604,7.948516 15.351958,15.29687c4.678699,13.797397 -3.0701,36.367927 -15.278774,44.766472c-9.722955,6.673833 -21.566071,8.098277 -34.57868,4.124206c-12.427862,-3.749244 -20.469399,-10.197913 -25.513291,-20.696095c-5.848556,-12.072722 -5.702187,-26.469908 0.292373,-42.591769c3.728031,-9.973086 7.237237,-15.072042 18.641612,-27.069698c3.655211,-3.899378 7.675979,-8.473239 8.918656,-10.12322c3.436022,-4.648928 7.45679,-13.347368 8.699467,-18.971047c1.243041,-5.399225 1.754603,-19.496516 0.804299,-22.870798c-1.023488,-3.899004 0.87712,-2.024569 4.239957,4.124206l0,0l0,0.000001zm38.014702,134.599311c-1.096672,2.024196 -2.412534,4.123832 -2.92446,4.723995c-0.438378,0.599789 -1.900608,2.999283 -3.216469,5.248717c-2.99728,5.249091 -12.501047,21.446018 -17.32575,29.469602c-5.044256,8.323105 -9.357398,15.821966 -14.25565,24.444965c-2.266165,3.974445 -4.53233,7.198966 -5.043892,7.198966c-0.511926,0 -2.778091,-3.224522 -5.044621,-7.198966c-4.897888,-8.622999 -9.211029,-16.121487 -14.255286,-24.444965c-4.824703,-8.023584 -14.32847,-24.220511 -17.32575,-29.469602c-1.315861,-2.249397 -2.704907,-4.648928 -3.216833,-5.248717c-0.438378,-0.599827 -1.608234,-2.474635 -2.558538,-4.124243l-1.681419,-2.999694l4.313141,4.199273c8.041537,7.873449 14.91358,11.622693 26.610328,14.622387c8.407094,2.17433 20.615404,2.474225 28.218562,0.599789c10.307702,-2.399494 20.030657,-8.548269 26.025217,-16.421755c1.754239,-2.24977 3.216469,-4.124206 3.362838,-4.124206c0.146005,0 -0.58511,1.574541 -1.681419,3.524416l0,0l0,0.000037l0.000001,0.000001z" fill="black" stroke="null"/>
   </g>
  </g>
 </g>
</svg>